# xmcd CD database file
#
# Track frame offsets:
#	150
#	29258
#	50933
#	75398
#	97720
#	116665
#	139203
#	168100
#	184905
#	205518
#
# Disc length: 3090 seconds
#
# Revision: 0
# Processed by: cddbd v1.5.2PL0 Copyright (c) Steve Scherf et al.
# Submitted via: CDex 1.51
#
DISCID=7b0c100a
DTITLE=Ron Feuer - Harry's Christmas Album
DYEAR=1993
DGENRE=Jazz
TTITLE0=White Christmas
TTITLE1=Jingle Bells
TTITLE2=Sleigh Ride
TTITLE3=Christmas Song
TTITLE4=Deck The Halls
TTITLE5=The Little Drummer Boy
TTITLE6=God Rest Ye Merry Gentlemen
TTITLE7=Medley
TTITLE8=Frosty the Snowman
TTITLE9=Silent Night
EXTD=YEAR: 1993
EXTT0=
EXTT1=
EXTT2=
EXTT3=
EXTT4=
EXTT5=
EXTT6=
EXTT7=
EXTT8=
EXTT9=
PLAYORDER=
